<?xml version="1.0" encoding="UTF-8" standalone="no"?>
<svg
   version="1.1"
   id="svg206"
   sodipodi:docname="bxs-sun.svg"
   width="20"
   height="20"
   inkscape:version="1.2.2 (732a01da63, 2022-12-09, custom)"
   xmlns:inkscape="http://www.inkscape.org/namespaces/inkscape"
   xmlns:sodipodi="http://sodipodi.sourceforge.net/DTD/sodipodi-0.dtd"
   xmlns="http://www.w3.org/2000/svg"
   xmlns:svg="http://www.w3.org/2000/svg">
  <defs
     id="defs210" />
  <sodipodi:namedview
     id="namedview208"
     pagecolor="#ffffff"
     bordercolor="#000000"
     borderopacity="0.25"
     inkscape:showpageshadow="2"
     inkscape:pageopacity="0.0"
     inkscape:pagecheckerboard="0"
     inkscape:deskcolor="#d1d1d1"
     showgrid="false"
     inkscape:zoom="4.9733333"
     inkscape:cx="99.530832"
     inkscape:cy="41.119303"
     inkscape:window-width="1634"
     inkscape:window-height="752"
     inkscape:window-x="50"
     inkscape:window-y="114"
     inkscape:window-maximized="0"
     inkscape:current-layer="svg206" />
  <path
     d="m 4.995,10 c 0,2.761 2.246,5.007 5.007,5.007 2.761,0 5.007,-2.246 5.007,-5.007 0,-2.761 -2.246,-5.007 -5.007,-5.007 C 7.241,4.993 4.995,7.239 4.995,10 Z M 9,17 h 2 v 3 H 9 Z M 9,0 h 2 V 3 H 9 Z M 0,9 h 3 v 2 H 0 Z m 17,0 h 3 v 2 H 17 Z M 3.637,17.778 2.223,16.364 4.344,14.243 5.758,15.657 Z M 14.242,4.344 16.364,2.222 17.778,3.636 15.656,5.758 Z M 4.344,5.759 2.223,3.637 3.638,2.223 5.758,4.345 Z m 13.434,10.605 -1.414,1.414 -2.122,-2.122 1.414,-1.414 z"
     id="path204"
     style="fill:#232323;fill-opacity:1" />
</svg>
